/* XPM */
static const char *tile_42[] = {
/* columns rows colors chars-per-pixel */
"32 32 5 1 ",
"  c #2F2E2F",
". c #3E2F5A",
"X c #564064",
"o c #85578E",
"O c #BE9BB0",
/* pixels */
"                                ",
"OOOOOO   ooo   oooooooooooooo   ",
"ooooXXo ooooo ooooooXoooXooooo o",
"oXXXX.. XXXoo ooXXoXXXoXXXXXXo o",
"XXXX..  XX..o o..XXXXXXXXXX.XX X",
".X..    ..... ......XX........ .",
"..       ...   ..............   ",
"                                ",
"ooo   ooooooooooooooo   oooooooo",
"oooo ooooooooooXXooooo ooooooXXo",
"oXoo ooXXoXXXoXXXXoXoo ooXoXXXXX",
"XX.o o.XXXX.XXX...XX.o o.XXXX..X",
"X... ...XX...XXXXXX... ...XX..XX",
".... ...........XX.... .........",
"...   ...............   ........",
"                                ",
"oooooooooo   oooooooooooo   oooo",
"oooooooXooo ooooooXooooooo oooXo",
"XoXXXoXXXoo ooXXoXXXXoXXoo ooXXX",
"XXXXX.XXXXo oXXXXX.XX.XXXo oXX.X",
"XX..XX.XXX. .XXXX..XXX.XX. .XXX.",
"X..XXX..X.. ..X...XX.XXX.. ..XXX",
"....X...... ..........X... ...X.",
"..........   ............   ....",
"                                ",
"ooooo   oooooooooooo   ooooooooo",
"oooooo ooooooXoooXooo ooooooooXo",
"XoXXoo ooXXoXXXoXXXoo ooXXoXXXXX",
".XXX.o o.XXXXXX.XXX.o o.XXXXXX.X",
"XXX... ...X..XXXXX... ...XXXX..X",
".X.... .........X.... ....X.....",
".....   ............   ........."
};
