/* XPM */
static const char *tile_67[] = {
/* columns rows colors chars-per-pixel */
"32 32 6 1 ",
"  c #17111A",
". c #17111B",
"X c #734538",
"o c #A66F4C",
"O c #D3A15E",
"+ c None",
/* pixels */
"++++++++++++++++++++++++++++++++",
"++++++++++++++++++++++++++++++++",
"++++++++++++++++++++++++++++++++",
"++++++++++++++++++++++++++++++++",
"++++++++++++++++++++++++++++++++",
"++++++++++++++++++++++++++++++++",
"+++++++++++++++++++++ ++++++++++",
"++++++++++ +++++++++ O +++++++++",
"+++++++++ O ++++++++ O +++++++++",
"+++++++++ O ++++++  OO  ++++++++",
"+++++++++ OX      OOOO  ++++++++",
"+++++++++ OXoooOOOOOOOo ++++++++",
"+++++++++ OOXoOOOOOOOOo ++++++++",
"+++++++++ OOoOOOOOOOOOOo +++++++",
"++++++++ OOOOoOOOOOOOOOo +++++++",
"++++++++ OOOOoOOOOOOOOOOo ++++++",
"+++++++ OOOOOOoOOOOOOOOOoo +++++",
"+++++++ OOoOOOoOOOOOOOOOOoo ++++",
"++++++ OOOXOOOOoOOOOOOOOOoo ++++",
"++++++ OOOXoOOOoOOOOOOOOOOoo +++",
"+++++ OOOOXoOOOOXOOOOOOOOooo +++",
"+++++ OOOO oOOOOoXoOOOOOoooo  ++",
"++++ OOOO   oOOOOoXooOOooo    ++",
"++++ OOOO   oOOOOooXooooo     ++",
"+++ OOOOo   oOOOooooXoo      +++",
"+++ oooo   + oooooooX      +++++",
"+++        +              ++++++",
"++++      +++           ++++++++",
"++++      +++         ++++++++++",
"++++++++++++++++++++++++++++++++",
"++++++++++++++++++++++++++++++++",
"++++++++++++++++++++++++++++++++"
};
