/* XPM */
static const char *tile_35[] = {
/* columns rows colors chars-per-pixel */
"32 32 4 1 ",
"  c #161616",
". c #201F23",
"X c #282629",
"o c #383539",
/* pixels */
"                                ",
" Xoooooooooo   oooooooooooooooX ",
" ooooXooooooo ooooooXoooXoooooo ",
" ooXXXXoXXXoo ooXXoXXXoXXXXoXoo ",
" oXXXXXXXX..o o..XXXXXXXXXXXXXo ",
" XoXX........ ......XX.....XXXX ",
" .XX........   .............XX. ",
"                                ",
" XooooooooooooooooooooooooooooX ",
" ooooooooooooooXXoooooooooooooo ",
" ooXXXoXXoXXXoXXXXoXooXooXoXXoo ",
" oXoXXXXXXX.XXX...XXXXXXXXXXoXo ",
" oXXXXX.XX...XXXXXX..XX.X.XXXXX ",
" XoXXX..........XX.........XXXX ",
" .XX........................XX. ",
"                                ",
" Xoooooooo   oooooooooooooooooX ",
" ooooooXooo ooooooXoooooooooooo ",
" oooXoXXXoo ooXXoXXXXoXXoooXooo ",
" ooXX.XXXXo oXXXXX.XX.XXXoXoXoo ",
" oXoXX.XXX. .XXXX..XXX.XXXXXXXo ",
" oXXXX..X.. ..X...XX.XXX..XXXXX ",
" XoXX...... ..........X....XXXX ",
" .X.......   ...............XX. ",
"                                ",
" XooooooooooooooooooooooooooooX ",
" oooXooooooooXoooXooooooooooooo ",
" ooooXoooXXoXXXoXXXoooooXXooXoo ",
" ooXXo.o.XXXXXX.XXXXoXoXXXXXooo ",
" oXXXX....X..XXXXX.XXXXX.XXXXXo ",
" XoXX...........X.........XXXXX ",
" .X.........................XX. "
};
